<svg width="24" height="24" viewBox="0 0 24 24" fill="none" xmlns="http://www.w3.org/2000/svg">
<path d="M10.8138 18.9462C10.4571 18.5796 10.4928 18.0298 10.8138 17.6632L15.1304 13.4479H4.85619C4.39242 13.4479 4 13.0813 4 12.5682V11.3952C4 10.9187 4.39242 10.5155 4.85619 10.5155H15.1304L10.8138 6.33677C10.4928 5.97022 10.4571 5.42039 10.8138 5.05384L11.5987 4.24742C11.9197 3.91753 12.4905 3.91753 12.8116 4.24742L19.7324 11.3952C20.0892 11.7251 20.0892 12.2749 19.7324 12.6048L12.8116 19.7526C12.4905 20.0825 11.9554 20.0825 11.5987 19.7526L10.8138 18.9462Z" fill="black"/>
</svg>
