<svg width="24" height="24" viewBox="0 0 24 24" fill="none" xmlns="http://www.w3.org/2000/svg">
<path d="M13.1862 18.9462C13.5429 18.5796 13.5072 18.0298 13.1862 17.6632L8.86957 13.4479H19.1438C19.6076 13.4479 20 13.0813 20 12.5682V11.3952C20 10.9187 19.6076 10.5155 19.1438 10.5155H8.86957L13.1862 6.33677C13.5072 5.97022 13.5429 5.42039 13.1862 5.05384L12.4013 4.24742C12.0803 3.91753 11.5095 3.91753 11.1884 4.24742L4.26756 11.3952C3.91081 11.7251 3.91081 12.2749 4.26756 12.6048L11.1884 19.7526C11.5095 20.0825 12.0446 20.0825 12.4013 19.7526L13.1862 18.9462Z" fill="black"/>
</svg>
